<?xml version="1.0" standalone="no"?><!DOCTYPE svg PUBLIC "-//W3C//DTD SVG 1.1//EN" "http://www.w3.org/Graphics/SVG/1.1/DTD/svg11.dtd"><svg t="1622102886846" class="icon" viewBox="0 0 1024 1024" version="1.1" xmlns="http://www.w3.org/2000/svg" p-id="1127" xmlns:xlink="http://www.w3.org/1999/xlink" width="200" height="200"><defs><style type="text/css"></style></defs><path d="M147.28148 1024a112.123724 112.123724 0 0 1-60.496134-17.737086A110.540056 110.540056 0 0 1 36.42469 913.143211V174.203526A174.52026 174.52026 0 0 1 210.628217 0h601.793999A174.52026 174.52026 0 0 1 986.625742 174.203526v738.939685A110.540056 110.540056 0 0 1 831.742971 1013.547788l-313.249614-139.046087a15.519951 15.519951 0 0 0-12.986081 0L192.257663 1013.547788a112.440458 112.440458 0 0 1-44.976183 10.452212zM210.628217 95.020105A79.183421 79.183421 0 0 0 131.444796 174.203526v738.939685a14.886483 14.886483 0 0 0 7.284874 13.302814 14.253016 14.253016 0 0 0 14.886483 0l313.249614-139.046087a111.80699 111.80699 0 0 1 90.2691 0l313.249613 139.046087a15.203217 15.203217 0 0 0 14.886483 0 14.886483 14.886483 0 0 0 7.284875-13.302814V174.203526a79.183421 79.183421 0 0 0-79.183421-79.183421z" fill="#060404" p-id="1128"></path><path d="M448.178479 460.530776H182.122185a47.510053 47.510053 0 1 1 0-95.020105H448.178479a47.510053 47.510053 0 0 1 0 95.020105z" fill="#2DAF62" p-id="1129"></path></svg>