<?xml version="1.0" standalone="no"?><!DOCTYPE svg PUBLIC "-//W3C//DTD SVG 1.1//EN" "http://www.w3.org/Graphics/SVG/1.1/DTD/svg11.dtd"><svg t="1622102909207" class="icon" viewBox="0 0 1024 1024" version="1.1" xmlns="http://www.w3.org/2000/svg" p-id="1264" xmlns:xlink="http://www.w3.org/1999/xlink" width="200" height="200"><defs><style type="text/css"></style></defs><path d="M744.163736 1024H264.486596a206.630153 206.630153 0 0 1-206.630153-206.630153v-368.982415a206.630153 206.630153 0 0 1 206.630153-206.630153h123.978091a44.27789 44.27789 0 0 1 0 88.55578H264.486596a118.074373 118.074373 0 0 0-118.074373 118.074373v368.392043a118.074373 118.074373 0 0 0 118.074373 118.074373h479.67714a118.074373 118.074373 0 0 0 118.074373-118.074373v-200.136062a44.27789 44.27789 0 0 1 88.55578 0v200.136062a206.630153 206.630153 0 0 1-206.630153 207.220525z" fill="#060404" p-id="1265"></path><path d="M487.056789 778.995676a43.687518 43.687518 0 0 1-42.801961-33.651196l-29.518593-119.550303a44.573076 44.573076 0 0 1 4.427789-33.060824L723.500721 64.940905a130.176996 130.176996 0 0 1 225.226866 130.176996L644.095705 722.910349a43.982704 43.982704 0 0 1-26.271548 20.663015l-118.074373 33.651196a41.326031 41.326031 0 0 1-12.692995 1.771116z m118.074373-78.224272z m-101.248775-79.10983l14.464111 59.037186 59.037186-16.235226 295.185933-512.442779a41.621216 41.621216 0 0 0-72.320554-42.80196z" fill="#2DAF62" p-id="1266"></path><path d="M876.407034 276.589219a46.049005 46.049005 0 0 1-22.138945-5.903719l-147.592966-85.899106a44.27789 44.27789 0 1 1 44.277889-76.748343l147.592967 85.899107a44.27789 44.27789 0 0 1-22.138945 82.652061z" fill="#2DAF62" p-id="1267"></path></svg>