<?xml version="1.0" standalone="no"?><!DOCTYPE svg PUBLIC "-//W3C//DTD SVG 1.1//EN" "http://www.w3.org/Graphics/SVG/1.1/DTD/svg11.dtd"><svg t="1622102960415" class="icon" viewBox="0 0 1024 1024" version="1.1" xmlns="http://www.w3.org/2000/svg" p-id="1402" xmlns:xlink="http://www.w3.org/1999/xlink" width="200" height="200"><defs><style type="text/css"></style></defs><path d="M512 1024A512 512 0 1 1 1024 512 512.583476 512.583476 0 0 1 512 1024z m0-936.478632A424.478632 424.478632 0 1 0 936.478632 512 425.062108 425.062108 0 0 0 512 87.521368z" fill="#060404" p-id="1403"></path><path d="M729.344729 681.791453H437.606838a43.760684 43.760684 0 0 1-43.760684-43.760684v-291.737892a43.760684 43.760684 0 0 1 87.521367 0v249.435898H729.344729a43.760684 43.760684 0 0 1 0 87.521367z" fill="#2DAF62" p-id="1404"></path></svg>